# xmcd
#
# Track frame offsets:
#	150
#	14885
#	29439
#	44997
#	58465
#	75716
#	93347
#	108395
#	124982
#	140469
#	158822
#	174417
#	191949
#	209219
#
# Disc length: 3022 seconds
# Revision: 0
# Processed by: cddbd v1.5.2PL0 Copyright (c) Steve Scherf et al.
# Submitted via: dBpowerAMP V12.0
#
DISCID=de0bcc0e
DTITLE=Bellamy Brothers - Let Your Love Flow and Other Number One Hits
DYEAR=1900
DGENRE=Country
TTITLE0=Let Your Love Flow
TTITLE1=If I Said You Had A Beautiful Body Would You Hold It Against Me?
TTITLE2=Redneck Girl
TTITLE3=Do You Love As Good As You Look?
TTITLE4=When I'm Away From You
TTITLE5=For All The Wrong Reasons
TTITLE6=Dancing Cowboys
TTITLE7=Sugar Daddy
TTITLE8=I Need More of You
TTITLE9=Old Hippie
TTITLE10=Kids of the Baby Boom
TTITLE11=Too Much is Not Enough
TTITLE12=Crossfire
TTITLE13=Let Your Love Flow (Remix)
EXTD=
EXTT0=
EXTT1=
EXTT2=
EXTT3=
EXTT4=
EXTT5=
EXTT6=
EXTT7=
EXTT8=
EXTT9=
EXTT10=
EXTT11=
EXTT12=
EXTT13=
PLAYORDER=
